<svg preserveAspectRatio="none" width="100%" height="100%" overflow="visible" style="display: block;" viewBox="0 0 20 20" fill="none" xmlns="http://www.w3.org/2000/svg">
<g id="Icon">
<path id="Vector" d="M10.8333 13.3333H6.66667" stroke="var(--stroke-0, #706478)" stroke-width="1.46" stroke-linecap="round" stroke-linejoin="round"/>
<path id="Vector_2" d="M11.6667 6.66667H6.66667" stroke="var(--stroke-0, #706478)" stroke-width="1.46" stroke-linecap="round" stroke-linejoin="round"/>
<path id="Vector_3" d="M13.3333 10H6.66667" stroke="var(--stroke-0, #706478)" stroke-width="1.46" stroke-linecap="round" stroke-linejoin="round"/>
<path id="Vector_4" d="M3.33333 2.49993C3.33333 2.27892 3.42113 2.06695 3.57741 1.91067C3.73369 1.75439 3.94565 1.6666 4.16667 1.6666C4.37302 1.66546 4.5754 1.72329 4.75 1.83326L5.5275 2.33326C5.7017 2.44458 5.90411 2.50373 6.11083 2.50373C6.31756 2.50373 6.51997 2.44458 6.69417 2.33326L7.4725 1.83326C7.6467 1.72195 7.84911 1.6628 8.05583 1.6628C8.26256 1.6628 8.46497 1.72195 8.63917 1.83326L9.41667 2.33326C9.59086 2.44458 9.79327 2.50373 10 2.50373C10.2067 2.50373 10.4091 2.44458 10.5833 2.33326L11.3608 1.83326C11.535 1.72195 11.7374 1.6628 11.9442 1.6628C12.1509 1.6628 12.3533 1.72195 12.5275 1.83326L13.3058 2.33326C13.48 2.44458 13.6824 2.50373 13.8892 2.50373C14.0959 2.50373 14.2983 2.44458 14.4725 2.33326L15.25 1.83326C15.4246 1.72329 15.627 1.66546 15.8333 1.6666C16.0543 1.6666 16.2663 1.75439 16.4226 1.91067C16.5789 2.06695 16.6667 2.27892 16.6667 2.49993V17.4999C16.6667 17.7209 16.5789 17.9329 16.4226 18.0892C16.2663 18.2455 16.0543 18.3333 15.8333 18.3333C15.627 18.3344 15.4246 18.2766 15.25 18.1666L14.4725 17.6666C14.2983 17.5553 14.0959 17.4961 13.8892 17.4961C13.6824 17.4961 13.48 17.5553 13.3058 17.6666L12.5275 18.1666C12.3533 18.2779 12.1509 18.3371 11.9442 18.3371C11.7374 18.3371 11.535 18.2779 11.3608 18.1666L10.5833 17.6666C10.4091 17.5553 10.2067 17.4961 10 17.4961C9.79327 17.4961 9.59086 17.5553 9.41667 17.6666L8.63917 18.1666C8.46497 18.2779 8.26256 18.3371 8.05583 18.3371C7.84911 18.3371 7.6467 18.2779 7.4725 18.1666L6.69417 17.6666C6.51997 17.5553 6.31756 17.4961 6.11083 17.4961C5.90411 17.4961 5.7017 17.5553 5.5275 17.6666L4.75 18.1666C4.5754 18.2766 4.37302 18.3344 4.16667 18.3333C3.94565 18.3333 3.73369 18.2455 3.57741 18.0892C3.42113 17.9329 3.33333 17.7209 3.33333 17.4999V2.49993Z" stroke="var(--stroke-0, #706478)" stroke-width="1.46" stroke-linecap="round" stroke-linejoin="round"/>
</g>
</svg>
