<svg preserveAspectRatio="none" width="100%" height="100%" overflow="visible" style="display: block;" viewBox="0 0 20 20" fill="none" xmlns="http://www.w3.org/2000/svg">
<g id="Icon Wrapper">
<path id="Vector" d="M10 15V18.3333" stroke="var(--stroke-0, #9F8EAB)" stroke-width="1.5" stroke-linecap="round" stroke-linejoin="round"/>
<path id="Vector_2" d="M14.1666 15L15.7966 5.44334" stroke="var(--stroke-0, #9F8EAB)" stroke-width="1.5" stroke-linecap="round" stroke-linejoin="round"/>
<path id="Vector_3" d="M2.5 6.66665L9.01667 1.98748C9.3021 1.7789 9.64647 1.66649 10 1.66649C10.3535 1.66649 10.6979 1.7789 10.9833 1.98748L17.5 6.66665" stroke="var(--stroke-0, #9F8EAB)" stroke-width="1.5" stroke-linecap="round" stroke-linejoin="round"/>
<path id="Vector_4" d="M3.33344 15H16.6668" stroke="var(--stroke-0, #9F8EAB)" stroke-width="1.5" stroke-linecap="round" stroke-linejoin="round"/>
<path id="Vector_5" d="M5.83334 15L4.20334 5.44334" stroke="var(--stroke-0, #9F8EAB)" stroke-width="1.5" stroke-linecap="round" stroke-linejoin="round"/>
<path id="Vector_6" d="M10.0001 10C10.9206 10 11.6668 9.25382 11.6668 8.33335C11.6668 7.41287 10.9206 6.66668 10.0001 6.66668C9.07963 6.66668 8.33344 7.41287 8.33344 8.33335C8.33344 9.25382 9.07963 10 10.0001 10Z" stroke="var(--stroke-0, #9F8EAB)" stroke-width="1.5" stroke-linecap="round" stroke-linejoin="round"/>
</g>
</svg>
