<svg preserveAspectRatio="none" width="100%" height="100%" overflow="visible" style="display: block;" viewBox="0 0 20 20" fill="none" xmlns="http://www.w3.org/2000/svg">
<g id="Icon Wrapper" clip-path="url(#clip0_0_25)">
<path id="Vector" d="M12.1134 18.0717C12.145 18.1506 12.2001 18.2179 12.2711 18.2646C12.3421 18.3113 12.4258 18.3352 12.5107 18.333C12.5957 18.3309 12.678 18.3027 12.7466 18.2524C12.8151 18.2021 12.8666 18.1321 12.8942 18.0517L18.3109 2.21833C18.3375 2.14449 18.3426 2.06458 18.3255 1.98796C18.3085 1.91133 18.2699 1.84116 18.2144 1.78564C18.1589 1.73013 18.0887 1.69158 18.0121 1.67449C17.9355 1.6574 17.8555 1.66249 17.7817 1.68916L1.94837 7.10583C1.86795 7.13341 1.7979 7.18493 1.7476 7.25347C1.69731 7.32202 1.66918 7.40431 1.66701 7.48929C1.66483 7.57428 1.6887 7.65791 1.73542 7.72893C1.78214 7.79996 1.84947 7.855 1.92837 7.88666L8.53671 10.5367C8.74561 10.6203 8.93542 10.7454 9.09468 10.9044C9.25394 11.0633 9.37936 11.2529 9.46337 11.4617L12.1134 18.0717Z" stroke="var(--stroke-0, #9F8EAB)" stroke-width="1.5" stroke-linecap="round" stroke-linejoin="round"/>
<path id="Vector_2" d="M18.2117 1.78917L9.095 10.905" stroke="var(--stroke-0, #9F8EAB)" stroke-width="1.5" stroke-linecap="round" stroke-linejoin="round"/>
</g>
<defs>
<clipPath id="clip0_0_25">
<rect width="20" height="20" fill="white"/>
</clipPath>
</defs>
</svg>
