<svg preserveAspectRatio="none" width="100%" height="100%" overflow="visible" style="display: block;" viewBox="0 0 20 20" fill="none" xmlns="http://www.w3.org/2000/svg">
<g id="Icon Wrapper">
<path id="Vector" d="M8.55667 17.5C8.70296 17.7533 8.91335 17.9637 9.16671 18.11C9.42006 18.2563 9.70746 18.3333 10 18.3333C10.2926 18.3333 10.5799 18.2563 10.8333 18.11C11.0867 17.9637 11.2971 17.7533 11.4433 17.5" stroke="var(--stroke-0, #9F8EAB)" stroke-width="1.5" stroke-linecap="round" stroke-linejoin="round"/>
<path id="Vector_2" d="M2.71833 12.7716C2.60947 12.891 2.53763 13.0393 2.51155 13.1987C2.48547 13.3581 2.50627 13.5217 2.57142 13.6695C2.63658 13.8173 2.74328 13.9429 2.87855 14.0312C3.01381 14.1195 3.17182 14.1665 3.33333 14.1666H16.6667C16.8282 14.1667 16.9862 14.1198 17.1216 14.0317C17.2569 13.9436 17.3637 13.8181 17.4291 13.6704C17.4944 13.5227 17.5154 13.3592 17.4895 13.1998C17.4637 13.0404 17.392 12.8919 17.2833 12.7725C16.175 11.63 15 10.4158 15 6.66664C15 5.34056 14.4732 4.06879 13.5355 3.13111C12.5979 2.19343 11.3261 1.66664 10 1.66664C8.67392 1.66664 7.40215 2.19343 6.46447 3.13111C5.52679 4.06879 5 5.34056 5 6.66664C5 10.4158 3.82417 11.63 2.71833 12.7716Z" stroke="var(--stroke-0, #9F8EAB)" stroke-width="1.5" stroke-linecap="round" stroke-linejoin="round"/>
</g>
</svg>
