<svg preserveAspectRatio="none" width="100%" height="100%" overflow="visible" style="display: block;" viewBox="0 0 20 20" fill="none" xmlns="http://www.w3.org/2000/svg">
<g id="Icon Wrapper">
<path id="Vector" d="M8.05911 3.44661C8.10503 2.96356 8.32939 2.51499 8.68837 2.18851C9.04734 1.86204 9.51514 1.68114 10.0004 1.68114C10.4856 1.68114 10.9534 1.86204 11.3124 2.18851C11.6713 2.51499 11.8957 2.96356 11.9416 3.44661C11.9692 3.75866 12.0716 4.05946 12.2401 4.32356C12.4085 4.58767 12.6382 4.80729 12.9095 4.96385C13.1808 5.1204 13.4859 5.20928 13.7989 5.22296C14.1118 5.23665 14.4235 5.17473 14.7074 5.04245C15.1484 4.84226 15.648 4.8133 16.1091 4.96119C16.5702 5.10908 16.9598 5.42324 17.202 5.84254C17.4443 6.26183 17.5219 6.75626 17.4196 7.22959C17.3174 7.70292 17.0428 8.12129 16.6491 8.40328C16.3928 8.58315 16.1835 8.82212 16.039 9.09997C15.8946 9.37782 15.8192 9.68637 15.8192 9.99953C15.8192 10.3127 15.8946 10.6212 16.039 10.8991C16.1835 11.1769 16.3928 11.4159 16.6491 11.5958C17.0428 11.8778 17.3174 12.2961 17.4196 12.7695C17.5219 13.2428 17.4443 13.7372 17.202 14.1565C16.9598 14.5758 16.5702 14.89 16.1091 15.0379C15.648 15.1858 15.1484 15.1568 14.7074 14.9566C14.4235 14.8243 14.1118 14.7624 13.7989 14.7761C13.4859 14.7898 13.1808 14.8787 12.9095 15.0352C12.6382 15.1918 12.4085 15.4114 12.2401 15.6755C12.0716 15.9396 11.9692 16.2404 11.9416 16.5524C11.8957 17.0355 11.6713 17.4841 11.3124 17.8105C10.9534 18.137 10.4856 18.3179 10.0004 18.3179C9.51514 18.3179 9.04734 18.137 8.68837 17.8105C8.32939 17.4841 8.10503 17.0355 8.05911 16.5524C8.03157 16.2403 7.9292 15.9394 7.76067 15.6752C7.59214 15.411 7.36243 15.1913 7.09098 15.0347C6.81953 14.8781 6.51434 14.7893 6.20126 14.7757C5.88819 14.7621 5.57645 14.8242 5.29245 14.9566C4.85152 15.1568 4.35189 15.1858 3.89078 15.0379C3.42968 14.89 3.04009 14.5758 2.79785 14.1565C2.55561 13.7372 2.47804 13.2428 2.58025 12.7695C2.68245 12.2961 2.95712 11.8778 3.35078 11.5958C3.60713 11.4159 3.81639 11.1769 3.96086 10.8991C4.10532 10.6212 4.18074 10.3127 4.18074 9.99953C4.18074 9.68637 4.10532 9.37782 3.96086 9.09997C3.81639 8.82212 3.60713 8.58315 3.35078 8.40328C2.95767 8.12115 2.68349 7.70294 2.58153 7.22993C2.47958 6.75692 2.55712 6.2629 2.7991 5.84388C3.04108 5.42485 3.43021 5.11076 3.89086 4.96265C4.35151 4.81453 4.85077 4.84298 5.29161 5.04245C5.57558 5.17473 5.88723 5.23665 6.2002 5.22296C6.51316 5.20928 6.81822 5.1204 7.08956 4.96385C7.3609 4.80729 7.59053 4.58767 7.759 4.32356C7.92748 4.05946 8.02985 3.75866 8.05745 3.44661" stroke="var(--stroke-0, #9F8EAB)" stroke-width="1.5" stroke-linecap="round" stroke-linejoin="round"/>
<path id="Vector_2" d="M10 12.5C11.3807 12.5 12.5 11.3807 12.5 10C12.5 8.61929 11.3807 7.5 10 7.5C8.61929 7.5 7.5 8.61929 7.5 10C7.5 11.3807 8.61929 12.5 10 12.5Z" stroke="var(--stroke-0, #9F8EAB)" stroke-width="1.5" stroke-linecap="round" stroke-linejoin="round"/>
</g>
</svg>
