<svg preserveAspectRatio="none" width="100%" height="100%" overflow="visible" style="display: block;" viewBox="0 0 280 292" fill="none" xmlns="http://www.w3.org/2000/svg">
<g id="Card Bg">
<mask id="path-1-inside-1_0_11" fill="white">
<path d="M280 44.96C280 48.3647 277.257 51.0672 274.111 52.3701C271.928 53.2747 269.944 54.6011 268.272 56.2725C266.601 57.9438 265.275 59.9276 264.37 62.1113C263.466 64.2952 263 66.6362 263 69C263 71.3638 263.466 73.7048 264.37 75.8887C265.275 78.0724 266.601 80.0562 268.272 81.7275C269.944 83.3989 271.928 84.7253 274.111 85.6299C277.257 86.9327 280 89.6343 280 93.0388V268C280 281.255 269.255 292 256 292H24C10.7452 292 0 281.255 0 268V93.0388C0 89.6343 2.74333 86.9327 5.88867 85.6299C8.07242 84.7253 10.0562 83.3989 11.7275 81.7275C13.3989 80.0562 14.7253 78.0724 15.6299 75.8887C16.5345 73.7048 17 71.3638 17 69C17 66.6362 16.5345 64.2952 15.6299 62.1113C14.7253 59.9276 13.3989 57.9438 11.7275 56.2725C10.0562 54.6011 8.07241 53.2747 5.88867 52.3701C2.74322 51.0672 0 48.3647 0 44.96V24C0 10.7452 10.7452 0 24 0H256C269.255 0 280 10.7452 280 24V44.96Z"/>
</mask>
<path d="M280 44.96C280 48.3647 277.257 51.0672 274.111 52.3701C271.928 53.2747 269.944 54.6011 268.272 56.2725C266.601 57.9438 265.275 59.9276 264.37 62.1113C263.466 64.2952 263 66.6362 263 69C263 71.3638 263.466 73.7048 264.37 75.8887C265.275 78.0724 266.601 80.0562 268.272 81.7275C269.944 83.3989 271.928 84.7253 274.111 85.6299C277.257 86.9327 280 89.6343 280 93.0388V268C280 281.255 269.255 292 256 292H24C10.7452 292 0 281.255 0 268V93.0388C0 89.6343 2.74333 86.9327 5.88867 85.6299C8.07242 84.7253 10.0562 83.3989 11.7275 81.7275C13.3989 80.0562 14.7253 78.0724 15.6299 75.8887C16.5345 73.7048 17 71.3638 17 69C17 66.6362 16.5345 64.2952 15.6299 62.1113C14.7253 59.9276 13.3989 57.9438 11.7275 56.2725C10.0562 54.6011 8.07241 53.2747 5.88867 52.3701C2.74322 51.0672 0 48.3647 0 44.96V24C0 10.7452 10.7452 0 24 0H256C269.255 0 280 10.7452 280 24V44.96Z" fill="var(--fill-0, #F0EEF7)"/>
<path d="M274.111 52.3701L273.729 51.4462V51.4462L274.111 52.3701ZM268.272 56.2725L267.565 55.5654V55.5654L268.272 56.2725ZM264.37 62.1113L263.446 61.7286L263.446 61.7286L264.37 62.1113ZM263 69H262V69H263ZM264.37 75.8887L263.446 76.2714L263.446 76.2714L264.37 75.8887ZM268.272 81.7275L267.565 82.4346V82.4346L268.272 81.7275ZM274.111 85.6299L273.729 86.5538V86.5538L274.111 85.6299ZM5.88867 85.6299L6.27136 86.5538L6.27137 86.5538L5.88867 85.6299ZM11.7275 81.7275L12.4346 82.4346V82.4346L11.7275 81.7275ZM15.6299 75.8887L16.5538 76.2714L16.5538 76.2714L15.6299 75.8887ZM17 69H18V69H17ZM15.6299 62.1113L16.5538 61.7286L16.5538 61.7286L15.6299 62.1113ZM11.7275 56.2725L12.4346 55.5654V55.5654L11.7275 56.2725ZM5.88867 52.3701L6.27137 51.4462L6.27136 51.4462L5.88867 52.3701ZM274.111 52.3701L273.729 51.4462C271.423 52.4012 269.329 53.8013 267.565 55.5654L268.272 56.2725L268.98 56.9796C270.558 55.4009 272.432 54.1482 274.494 53.294L274.111 52.3701ZM268.272 56.2725L267.565 55.5654C265.801 57.3294 264.401 59.4234 263.446 61.7286L264.37 62.1113L265.294 62.494C266.148 60.4318 267.401 58.5582 268.98 56.9796L268.272 56.2725ZM264.37 62.1113L263.446 61.7286C262.491 64.0339 262 66.5049 262 69H263H264C264 66.7675 264.44 64.5565 265.294 62.494L264.37 62.1113ZM263 69H262C262 71.4951 262.491 73.9661 263.446 76.2714L264.37 75.8887L265.294 75.506C264.44 73.4435 264 71.2325 264 69H263ZM264.37 75.8887L263.446 76.2714C264.401 78.5766 265.801 80.6706 267.565 82.4346L268.272 81.7275L268.98 81.0204C267.401 79.4418 266.148 77.5682 265.294 75.506L264.37 75.8887ZM268.272 81.7275L267.565 82.4346C269.329 84.1987 271.423 85.5988 273.729 86.5538L274.111 85.6299L274.494 84.706C272.432 83.8518 270.558 82.5991 268.98 81.0204L268.272 81.7275ZM280 93.0388H279V268H280H281V93.0388H280ZM256 292V291H24V292V293H256V292ZM0 268H1V93.0388H0H-1V268H0ZM5.88867 85.6299L6.27137 86.5538C8.57663 85.5988 10.6706 84.1987 12.4346 82.4346L11.7275 81.7275L11.0204 81.0204C9.44176 82.5991 7.5682 83.8518 5.50597 84.706L5.88867 85.6299ZM11.7275 81.7275L12.4346 82.4346C14.1987 80.6706 15.5988 78.5766 16.5538 76.2714L15.6299 75.8887L14.706 75.506C13.8518 77.5682 12.5991 79.4418 11.0204 81.0204L11.7275 81.7275ZM15.6299 75.8887L16.5538 76.2714C17.5086 73.9661 18 71.4951 18 69H17H16C16 71.2325 15.5603 73.4435 14.706 75.506L15.6299 75.8887ZM17 69H18C18 66.5049 17.5086 64.0339 16.5538 61.7286L15.6299 62.1113L14.706 62.494C15.5603 64.5565 16 66.7675 16 69H17ZM15.6299 62.1113L16.5538 61.7286C15.5988 59.4234 14.1987 57.3294 12.4346 55.5654L11.7275 56.2725L11.0204 56.9796C12.5991 58.5582 13.8518 60.4318 14.706 62.494L15.6299 62.1113ZM11.7275 56.2725L12.4346 55.5654C10.6706 53.8013 8.57662 52.4012 6.27137 51.4462L5.88867 52.3701L5.50597 53.294C7.5682 54.1482 9.44176 55.4009 11.0204 56.9796L11.7275 56.2725ZM0 44.96H1V24H0H-1V44.96H0ZM24 0V1H256V0V-1H24V0ZM280 24H279V44.96H280H281V24H280ZM274.111 52.3701L274.494 53.294C277.824 51.9146 281 48.9406 281 44.96H280H279C279 47.7887 276.689 50.2198 273.729 51.4462L274.111 52.3701ZM0 93.0388H1C1 90.2103 3.3105 87.7802 6.27136 86.5538L5.88867 85.6299L5.50599 84.706C2.17617 86.0853 -1 89.0582 -1 93.0388H0ZM0 24H1C1 11.2975 11.2975 1 24 1V0V-1C10.1929 -1 -1 10.1929 -1 24H0ZM280 268H279C279 280.703 268.703 291 256 291V292V293C269.807 293 281 281.807 281 268H280ZM5.88867 52.3701L6.27136 51.4462C3.31059 50.2198 1 47.7887 1 44.96H0H-1C-1 48.9406 2.17586 51.9146 5.50599 53.294L5.88867 52.3701ZM274.111 85.6299L273.729 86.5538C276.69 87.7802 279 90.2103 279 93.0388H280H281C281 89.0582 277.824 86.0853 274.494 84.706L274.111 85.6299ZM256 0V1C268.703 1 279 11.2975 279 24H280H281C281 10.1929 269.807 -1 256 -1V0ZM24 292V291C11.2975 291 1 280.703 1 268H0H-1C-1 281.807 10.1929 293 24 293V292Z" fill="var(--stroke-0, #F8F6FF)" mask="url(#path-1-inside-1_0_11)"/>
</g>
</svg>
